<svg xmlns="http://www.w3.org/2000/svg" xmlns:xlink="http://www.w3.org/1999/xlink" width="20" height="20" viewBox="0 0 20 20" fill="none"><g opacity="1"  transform="translate(0 0)  rotate(0)"><mask id="bg-mask-0" fill="white"><use transform="translate(0 0)  rotate(NaN)" xlink:href="#path_0"></use></mask><g mask="url(#bg-mask-0)" ><g opacity="1"  transform="translate(2 4)  rotate(0)"><path id="矩形 1" fill-rule="evenodd" style="fill:#B0B1B3" opacity="1" d="M0.5 14L15.5 14C15.78 14 16 13.78 16 13.5L16 5L0 5L0 13.5C0 13.78 0.22 14 0.5 14Z"></path><path  id="矩形 1" style="fill:#B0B1B3; opacity:1;" d="M0.5,13.335h15c-0.0911,0 -0.165,0.0739 -0.165,0.165v-8.5h0.665v0.665h-16v-0.665h0.665v8.5c0,-0.0911 -0.07387,-0.165 -0.165,-0.165zM0.5,14.665c-0.64341,0 -1.165,-0.5216 -1.165,-1.165v-9.165h17.33v9.165c0,0.6434 -0.5216,1.165 -1.165,1.165z"></path><path  id="矩形 1" style="fill:#B0B1B3; opacity:1;" d="M0,4.33501h16v0.665h-0.665v-4.50001c0,0.09113 0.0739,0.165 0.165,0.165h-15c0.09113,0 0.165,-0.07387 0.165,-0.165v4.50001h-0.665zM-0.665,5.66501v-5.16501c0,-0.64341 0.52159,-1.165 1.165,-1.165h15c0.6434,0 1.165,0.52159 1.165,1.165v5.16501h-16.665z"></path><path  id="路径 2" style="fill:#B0B1B3; opacity:1;" d="M13,3.16901c-0.3673,0 -0.665,-0.29952 -0.665,-0.66901c0,-0.36949 0.2977,-0.66901 0.665,-0.66901h0.5c0.3673,0 0.665,0.29952 0.665,0.66901c0,0.36949 -0.2977,0.66901 -0.665,0.66901z"></path><path  id="路径 2" style="fill:#B0B1B3; opacity:1;" d="M10,3.16901c-0.36727,0 -0.66501,-0.29952 -0.66501,-0.66901c0,-0.36949 0.29774,-0.66901 0.66501,-0.66901h0.5c0.3673,0 0.665,0.29952 0.665,0.66901c0,0.36949 -0.2977,0.66901 -0.665,0.66901z"></path><path id="文本 3" fill-rule="evenodd" style="fill:#1D1F26" opacity="1" d="M4.23002,6.6c0,-0.06 0.04,-0.1 0.1,-0.1h0.93c0.06,0 0.1,0.04 0.1,0.1v3.42c0,0.75 -0.29,1.31 -0.29,1.31c-0.29,0.57 -0.83,0.87 -0.83,0.87c-0.55,0.3 -1.29,0.3 -1.29,0.3c-0.75999,0 -1.29999,-0.3 -1.29999,-0.3c-0.54,-0.3 -0.83,-0.87 -0.83,-0.87c-0.29,-0.56 -0.29,-1.31 -0.29,-4.73c0,-0.06 0.04,-0.1 0.1,-0.1h0.93c0.06,0 0.1,0.04 0.1,0.1v3.13c0,0.86 0.34,1.28 0.34,1.28c0.33,0.42 0.94999,0.42 0.94999,0.42c0.6,0 0.94,-0.42 0.94,-0.42c0.34,-0.42 0.34,-1.28 0.34,-1.28zM9.66001,10.1l1.44999,2.15c0.04,0.06 -0.01,0.15 -0.08,0.15h-1.09999c-0.04,0 -0.07,-0.02 -0.09,-0.05l-1.34,-2.06c-0.01,-0.01 -0.02,-0.02 -0.03,-0.02h-0.75c-0.06,0 -0.1,0.04 -0.1,0.1v1.93c0,0.06 -0.04,0.1 -0.1,0.1h-0.92999c-0.06,0 -0.1,-0.04 -0.1,-0.1v-5.7c0,-0.06 0.04,-0.1 0.1,-0.1h1.86999c0.67,0 1.17,0.23 1.17,0.23c0.50999,0.24 0.77999,0.67 0.77999,0.67c0.27,0.43 0.27,0.99 0.27,0.99c0,0.56 -0.28,0.99 -0.28,0.99c-0.28,0.43 -0.77999,0.65 -0.70999,0.62c-0.04,0.01 -0.06,0.06 -0.03,0.1zM7.72001,9.28h0.59c0.01,0 0.02,0 0.03,0c0.45,0 0.76,-0.19 0.81,-0.22c0.01,0 0.02,-0.01 0.02,-0.01c0.29,-0.22 0.31,-0.61 0.31,-0.66c0,-0.01 0,-0.02 0,-0.03c-0.01,-0.41 -0.29,-0.63 -0.32,-0.65c-0.01,0 -0.01,-0.01 -0.02,-0.01c-0.32,-0.21 -0.81,-0.21 -0.81,-0.21h-0.61c-0.06,0 -0.1,0.04 -0.1,0.1v1.59c0,0.06 0.04,0.1 0.1,0.1zM11.81,12.3v-5.7c0,-0.06 0.04,-0.1 0.1,-0.1h0.93c0.06,0 0.1,0.04 0.1,0.1v4.65c0,0.06 0.04,0.1 0.1,0.1h2.39c0.06,0 0.1,0.04 0.1,0.1v0.85c0,0.06 -0.04,0.1 -0.1,0.1h-3.52c-0.06,0 -0.1,-0.04 -0.1,-0.1z"></path></g></g></g><defs><rect id="path_0" x="0" y="0" width="20" height="20" /></defs></svg>