<svg xmlns="http://www.w3.org/2000/svg" xmlns:xlink="http://www.w3.org/1999/xlink" width="20" height="20" viewBox="0 0 20 20" fill="none"><g opacity="1"  transform="translate(0 0)  rotate(0)"><mask id="bg-mask-0" fill="white"><use transform="translate(0 0)  rotate(0)" xlink:href="#path_0"></use></mask><g mask="url(#bg-mask-0)" ><g opacity="1"  transform="translate(1 2)  rotate(0)"><path id="路径 1" fill-rule="evenodd" style="fill:#B0B1B3" opacity="1" d="M11.1695 9.79548C12.4595 9.21548 13.3495 7.98548 13.4995 6.56548C13.6495 5.15548 13.0295 3.76548 11.8795 2.93548C10.7295 2.09548 9.21952 1.94548 7.91952 2.52548C6.62952 3.10548 5.73952 4.33548 5.58952 5.74548C5.44952 7.16548 6.05952 8.55548 7.20952 9.38548C8.35952 10.2255 9.86952 10.3755 11.1695 9.79548Z"></path><path id="路径 2" fill-rule="evenodd" style="fill:#B0B1B3" opacity="1" d="M10.6011,5.52h-0.09l-6.54002,-1.86c-0.11,-0.03 -0.17,-0.12 -0.2,-0.24c-0.03,-0.12 0.03,-0.23 0.12,-0.29l4.18,-3.07c0.06,-0.06 0.17,-0.06 0.26,-0.06l6.54002,1.86c0.12,0.03 0.17,0.12 0.2,0.24c0.03,0.11 -0.03,0.23 -0.11,0.29l-4.18,3.07c-0.06,0.03 -0.12,0.06 -0.18,0.06zM10.5411,4.9l3.59,-2.6l-5.83002,-1.68l-3.59,2.63zM5.74108,8.31l0.69,-0.5l0.34,0.48l-0.69,0.5zM7.27108,7.94l-0.35,-0.47l1.18,-0.86c0.05,-0.06 0.17,-0.06 0.26,-0.06l1.41001,0.41l-0.14,0.56l-1.27001,-0.35zM10.0511,7.67l0.16,-0.57l1.17,0.33l-0.17,0.57zM11.6911,8.16l0.16,-0.57l0.93,0.27l-0.16,0.56z"></path><path id="路径 3" fill-rule="evenodd" style="fill:#B0B1B3" opacity="1" d="M10.7811 12.0067L14.9311 8.99671C15.0111 8.9367 15.0711 8.8267 15.0411 8.70671C15.0111 8.5867 14.9611 8.4967 14.8411 8.4667L13.2211 7.9967L13.0711 8.5567L14.1311 8.8567L10.5411 11.4467L4.71108 9.79671L5.65108 9.1167L5.30108 8.6467L3.89108 9.64671C3.80108 9.70671 3.74108 9.82671 3.77108 9.94671C3.80108 10.0667 3.86108 10.1467 3.97108 10.1767L10.5111 12.0667L10.6011 12.0667C10.6611 12.0667 10.7211 12.0367 10.7811 12.0067Z"></path><path id="路径 4" fill-rule="evenodd" style="fill:#B0B1B3" opacity="1" d="M3.82764,3.24507h0.59v6.79003h-0.59zM10.3076,5.31507h0.59v6.49003h-0.59zM7.94764,5.60507h0.59v1.18001h-0.59zM7.94764,3.83507h0.59v1.18h-0.59zM7.94764,2.06507h0.59v1.18h-0.59zM7.94764,0.29507h0.59v1.18h-0.59zM14.4276,2.06507h0.59v6.79001h-0.59z"></path><path id="路径 5" fill-rule="evenodd" style="fill:#006FFF" opacity="1" d="M2.36 10.8323C2.36 10.3823 2.56 10.0623 2.94 9.74228L2.94 8.26228C1.09 9.12228 0 10.4123 0 11.8023C0 14.1623 3.27 16.3223 7.66001 16.5223L7.66001 18.0023L11.78 15.0523L7.66001 12.1023L7.66001 13.5723C4.68 13.3123 2.36 12.2123 2.36 10.8323Z"></path><path  id="路径 8" style="fill:#B0B1B3; opacity:1;" d="M15.9609,10.3279c0,0.33253 -0.02197,0.61013 -0.0659,0.8328c-0.08093,0.4106 -0.24177,0.77963 -0.4825,1.1071c-0.63167,0.85913 -1.79513,1.41077 -3.4904,1.6549l-0.0002,-0.0016c-0.02353,0.0034 -0.0472,0.0051 -0.071,0.0051c-0.03287,0 -0.0654,-0.0032 -0.0976,-0.0096c-0.0322,-0.0064 -0.06347,-0.0159 -0.0938,-0.0285c-0.03033,-0.01253 -0.05913,-0.02793 -0.0864,-0.0462c-0.02733,-0.0182 -0.0526,-0.0389 -0.0758,-0.0621c-0.0232,-0.02327 -0.04393,-0.04853 -0.0622,-0.0758c-0.0182,-0.02733 -0.0336,-0.05617 -0.0462,-0.0865c-0.01253,-0.03027 -0.022,-0.0615 -0.0284,-0.0937c-0.0064,-0.0322 -0.0096,-0.06473 -0.0096,-0.0976c0,-0.03147 0.00293,-0.06267 0.0088,-0.0936c0.00587,-0.03093 0.0146,-0.06103 0.0262,-0.0903c0.0116,-0.02927 0.02583,-0.0572 0.0427,-0.0838c0.0168,-0.0266 0.03597,-0.05137 0.0575,-0.0743c0.02153,-0.023 0.04503,-0.04373 0.0705,-0.0622c0.02547,-0.01853 0.05243,-0.03453 0.0809,-0.048c0.02847,-0.0134 0.05793,-0.02403 0.0884,-0.0319c0.03053,-0.00787 0.0615,-0.01283 0.0929,-0.0149c1.3968,-0.2064 2.32613,-0.62367 2.788,-1.2518c0.1526,-0.20753 0.25497,-0.4436 0.3071,-0.7082c0.02913,-0.1478 0.0447,-0.3427 0.0467,-0.5847c-0.00193,-0.01813 -0.0029,-0.03633 -0.0029,-0.0546c0,-0.03287 0.0032,-0.0654 0.0096,-0.0976c0.0064,-0.0322 0.01587,-0.06347 0.0284,-0.0938c0.0126,-0.03033 0.028,-0.05913 0.0462,-0.0864c0.01827,-0.02733 0.039,-0.0526 0.0622,-0.0758c0.0232,-0.02322 0.04847,-0.04395 0.0758,-0.06219c0.02727,-0.01823 0.05607,-0.03363 0.0864,-0.0462c0.03033,-0.01257 0.0616,-0.02205 0.0938,-0.02845c0.0322,-0.00641 0.06473,-0.00961 0.0976,-0.00961c0.0328,0 0.0653,0.0032 0.0975,0.00961c0.0322,0.0064 0.06347,0.01588 0.0938,0.02845c0.03033,0.01257 0.05913,0.02797 0.0864,0.0462c0.02733,0.01824 0.0526,0.03897 0.0758,0.06219c0.0232,0.0232 0.04393,0.04847 0.0622,0.0758c0.01827,0.02727 0.03367,0.05607 0.0462,0.0864c0.01253,0.03033 0.02203,0.0616 0.0285,0.0938c0.0064,0.0322 0.0096,0.06473 0.0096,0.0976z"></path><path  id="路径 9" style="fill:#B0B1B3; opacity:1;" d="M16.2417,7.84063l0.0013,-0.00215c0.50367,0.31531 0.89017,0.59425 1.1595,0.83682c0.50813,0.4577 0.8401,0.94983 0.9959,1.4764c0.4248,1.4356 -0.4529,3.00387 -2.6331,4.7048l-0.0016,-0.002c-0.09013,0.06967 -0.19213,0.1045 -0.306,0.1045c-0.0328,0 -0.0653,-0.0032 -0.0975,-0.0096c-0.0322,-0.0064 -0.06347,-0.0159 -0.0938,-0.0285c-0.03033,-0.01253 -0.05917,-0.02793 -0.0865,-0.0462c-0.02727,-0.0182 -0.05253,-0.0389 -0.0758,-0.0621c-0.0232,-0.02327 -0.0439,-0.04853 -0.0621,-0.0758c-0.01827,-0.02733 -0.03367,-0.05617 -0.0462,-0.0865c-0.0126,-0.03033 -0.0221,-0.0616 -0.0285,-0.0938c-0.0064,-0.0322 -0.0096,-0.0647 -0.0096,-0.0975c0,-0.04227 0.00527,-0.08383 0.0158,-0.1247c0.01053,-0.04093 0.026,-0.07987 0.0464,-0.1168c0.0204,-0.037 0.0451,-0.07087 0.0741,-0.1016c0.029,-0.03073 0.06137,-0.05737 0.0971,-0.0799c1.00327,-0.78807 1.68177,-1.51927 2.0355,-2.1936c0.2682,-0.51127 0.33917,-0.98027 0.2129,-1.407c-0.10247,-0.34621 -0.3379,-0.68524 -0.7063,-1.01707c-0.21967,-0.19789 -0.5471,-0.43392 -0.9823,-0.70807c-0.04173,-0.02069 -0.07983,-0.04669 -0.1143,-0.07802c-0.03447,-0.03133 -0.06397,-0.06679 -0.0885,-0.10636c-0.02453,-0.03957 -0.0432,-0.08176 -0.056,-0.12655c-0.01273,-0.04479 -0.0191,-0.09048 -0.0191,-0.13705c0,-0.03283 0.0032,-0.06534 0.0096,-0.09754c0.0064,-0.0322 0.01587,-0.06347 0.0284,-0.0938c0.0126,-0.03033 0.028,-0.05915 0.0462,-0.08644c0.01827,-0.0273 0.039,-0.05256 0.0622,-0.07577c0.0232,-0.02321 0.04847,-0.04394 0.0758,-0.06218c0.02727,-0.01824 0.05607,-0.03364 0.0864,-0.04621c0.03033,-0.01256 0.0616,-0.02204 0.0938,-0.02845c0.0322,-0.00641 0.06473,-0.00961 0.0976,-0.00961c0.09713,0 0.1867,0.02612 0.2687,0.07835z"></path></g></g></g><defs><rect id="path_0" x="0" y="0" width="20" height="20" /></defs></svg>