<svg xmlns="http://www.w3.org/2000/svg" xmlns:xlink="http://www.w3.org/1999/xlink" width="20" height="20" viewBox="0 0 20 20" fill="none"><g opacity="1"  transform="translate(0 0)  rotate(0)"><mask id="bg-mask-0" fill="white"><use transform="translate(0 0)  rotate(0)" xlink:href="#path_0"></use></mask><g mask="url(#bg-mask-0)" ><g opacity="1"  transform="translate(2 4)  rotate(0)"><path  id="路径 1" style="fill:#B0B1B3; opacity:1;" d="M0.66667,13.12c0,0.0652 0.02054,0.11917 0.06161,0.1619c0.03294,0.03427 0.07018,0.0514 0.11173,0.0514h14.32c0.04153,0 0.07877,-0.01713 0.1117,-0.0514c0.04107,-0.04273 0.0616,-0.0967 0.0616,-0.1619v-12.25c0,-0.05968 -0.0199,-0.1101 -0.0597,-0.15126c-0.03367,-0.03472 -0.07153,-0.05207 -0.1136,-0.05207h-14.32c-0.04209,0 -0.07994,0.01736 -0.11355,0.05207c-0.03985,0.04116 -0.05978,0.09158 -0.05978,0.15126zM-0.66667,13.12v-12.25c0,-0.4195 0.14507,-0.77908 0.43522,-1.07874c0.29559,-0.30528 0.65274,-0.45793 1.07145,-0.45793h14.32c0.41873,0 0.77587,0.15264 1.0714,0.45793c0.2902,0.29966 0.4353,0.65924 0.4353,1.07874v12.25c0,0.42293 -0.14447,0.7848 -0.4334,1.0856c-0.29527,0.3074 -0.65303,0.4611 -1.0733,0.4611h-14.32c-0.42024,0 -0.77799,-0.1537 -1.07327,-0.4611c-0.28893,-0.3008 -0.43339,-0.66267 -0.43339,-1.0856z"></path><path id="路径 3" fill-rule="evenodd" style="fill:#B0B1B3" opacity="1" d="M0 11.3775L0 13.1275C0 13.6075 0.38 13.9975 0.84 13.9975L15.16 13.9975C15.62 13.9975 16 13.6075 16 13.1275L16 11.3775L8.84 5.68751L6.32 8.74751L4.21 6.99751L0 11.3775Z"></path><path  id="路径 3" style="fill:#B0B1B3; opacity:1;" d="M0.66667,11.3775v1.75c0,0.05967 0.01993,0.1101 0.05978,0.1513c0.03361,0.03467 0.07147,0.052 0.11355,0.052h14.32c0.04207,0 0.07993,-0.01733 0.1136,-0.052c0.0398,-0.0412 0.0597,-0.09163 0.0597,-0.1513v-1.75h0.6667l-0.4148,0.5219l-7.15997,-5.68996l0.41477,-0.52193l0.51462,0.4238l-2.52,3.06c-0.02783,0.03379 -0.05868,0.06454 -0.09257,0.09225c-0.03389,0.02771 -0.07015,0.05186 -0.10879,0.07243c-0.03864,0.02057 -0.07891,0.03717 -0.12082,0.0498c-0.04191,0.01264 -0.08465,0.02107 -0.12822,0.02528c-0.04357,0.00422 -0.08714,0.00415 -0.13069,-0.00022c-0.04356,-0.00437 -0.08627,-0.01294 -0.12814,-0.02571c-0.04187,-0.01278 -0.08208,-0.02952 -0.12065,-0.05022c-0.03857,-0.0207 -0.07475,-0.04496 -0.10854,-0.07279c-0.0006,-0.00049 -0.0012,-0.00099 -0.00179,-0.00148l-2.11,-1.75l0.42559,-0.51314l0.48064,0.46198l-4.21,4.38001l-0.48064,-0.462zM-0.66667,11.3775c0,-0.08613 0.01608,-0.16913 0.04825,-0.249c0.03217,-0.07987 0.07809,-0.15087 0.13777,-0.213l4.21,-4.37998c0.02891,-0.03008 0.06037,-0.05721 0.09438,-0.08138c0.034,-0.02417 0.06996,-0.04497 0.10787,-0.06239c0.03791,-0.01742 0.07711,-0.03116 0.1176,-0.04123c0.04049,-0.01006 0.08156,-0.01627 0.12322,-0.01862c0.04165,-0.00235 0.08316,-0.00081 0.12453,0.00464c0.04136,0.00544 0.08186,0.01468 0.12149,0.02773c0.03963,0.01304 0.0777,0.02966 0.11421,0.04985c0.03651,0.02019 0.07082,0.04361 0.10293,0.07024l2.11,1.75l-0.42559,0.51315l-0.51462,-0.42381l2.52,-3.06c0.02752,-0.03341 0.058,-0.06386 0.09145,-0.09133c0.03345,-0.02747 0.06923,-0.05146 0.10735,-0.07197c0.03812,-0.02051 0.07786,-0.03714 0.11921,-0.04991c0.04136,-0.01277 0.08356,-0.02142 0.12661,-0.02596c0.04305,-0.00455 0.08613,-0.0049 0.12924,-0.00105c0.04311,0.00385 0.08545,0.01182 0.12702,0.02391c0.04156,0.01209 0.08156,0.02808 0.12001,0.04797c0.03845,0.01988 0.07461,0.04329 0.1085,0.07022l7.16003,5.69002c0.07953,0.0632 0.1414,0.14057 0.1856,0.2321c0.0442,0.09153 0.0663,0.18813 0.0663,0.2898v1.75c0,0.41953 -0.1451,0.7791 -0.4353,1.0787c-0.29553,0.30533 -0.65267,0.458 -1.0714,0.458h-14.32c-0.4187,0 -0.77585,-0.15267 -1.07145,-0.458c-0.29015,-0.2996 -0.43522,-0.65917 -0.43522,-1.0787v-1.75z"></path></g></g></g><defs><rect id="path_0" x="0" y="0" width="20" height="20" /></defs></svg>