<svg xmlns="http://www.w3.org/2000/svg" xmlns:xlink="http://www.w3.org/1999/xlink" width="20" height="20" viewBox="0 0 20 20" fill="none"><g opacity="1"  transform="translate(0 0)  rotate(0)"><mask id="bg-mask-0" fill="white"><use transform="translate(0 0)  rotate(0)" xlink:href="#path_0"></use></mask><g mask="url(#bg-mask-0)" ><g opacity="1"  transform="translate(3 4)  rotate(0)"><path id="路径 1" fill-rule="evenodd" style="fill:#B0B1B3" opacity="1" d="M0.5 14L13.5 14C13.78 14 14 13.78 14 13.5L14 0.5C14 0.22 13.78 0 13.5 0L0.5 0C0.22 0 0 0.22 0 0.5L0 13.5C0 13.78 0.22 14 0.5 14Z"></path><path  id="路径 1" style="fill:#B0B1B3; opacity:1;" d="M0.5,13.3333h13c-0.04407,0 -0.08287,0.01677 -0.1164,0.0503c-0.03353,0.03353 -0.0503,0.07233 -0.0503,0.1164v-13c0,0.04409 0.01677,0.0829 0.0503,0.1164c0.03353,0.03351 0.07233,0.05026 0.1164,0.05026h-13c0.04409,0 0.0829,-0.01675 0.1164,-0.05026c0.03351,-0.03351 0.05026,-0.07231 0.05026,-0.1164v13c0,-0.04407 -0.01675,-0.08287 -0.05026,-0.1164c-0.03351,-0.03353 -0.07231,-0.0503 -0.1164,-0.0503zM0.5,14.6667c-0.32409,0 -0.59956,-0.11343 -0.8264,-0.3403c-0.22684,-0.22687 -0.34026,-0.50233 -0.34026,-0.8264v-13c0,-0.32409 0.11342,-0.59956 0.34026,-0.8264c0.22684,-0.22684 0.50231,-0.34026 0.82641,-0.34026h13c0.32407,0 0.59953,0.11342 0.8264,0.34026c0.22687,0.22684 0.3403,0.50231 0.3403,0.82641v13c0,0.32407 -0.11343,0.59953 -0.3403,0.8264c-0.22687,0.22687 -0.50233,0.3403 -0.8264,0.3403z"></path><path id="路径 1" fill-rule="evenodd" style="fill:#B0B1B3" opacity="1" d="M1.95 12.25L12.05 12.25C12.16 12.25 12.25 12.16 12.25 12.05L12.25 1.95C12.25 1.84 12.16 1.75 12.05 1.75L1.95 1.75C1.84 1.75 1.75 1.84 1.75 1.95L1.75 12.05C1.75 12.16 1.84 12.25 1.95 12.25Z"></path><path  id="路径 1" style="fill:#1D1F26; opacity:1;" d="M1.95,11.585h10.1c-0.12867,0 -0.23833,0.04533 -0.329,0.136c-0.09067,0.09067 -0.136,0.20033 -0.136,0.329v-10.1c0,0.12863 0.04533,0.23829 0.136,0.32898c0.09067,0.09068 0.20033,0.13602 0.329,0.13602h-10.1c0.12863,0 0.23829,-0.04534 0.32898,-0.13602c0.09068,-0.09069 0.13602,-0.20035 0.13602,-0.32898v10.1c0,-0.12867 -0.04534,-0.23833 -0.13602,-0.329c-0.09069,-0.09067 -0.20035,-0.136 -0.32898,-0.136zM1.95,12.915c-0.23863,0 -0.44246,-0.0845 -0.61148,-0.2535c-0.16901,-0.169 -0.25352,-0.37283 -0.25352,-0.6115v-10.1c0,-0.23863 0.08451,-0.44246 0.25352,-0.61148c0.16902,-0.16901 0.37285,-0.25352 0.61148,-0.25352h10.1c0.23867,0 0.4425,0.08451 0.6115,0.25352c0.169,0.16902 0.2535,0.37285 0.2535,0.61148v10.1c0,0.23867 -0.0845,0.4425 -0.2535,0.6115c-0.169,0.169 -0.37283,0.2535 -0.6115,0.2535z"></path></g></g></g><defs><rect id="path_0" x="0" y="0" width="20" height="20" /></defs></svg>