<svg xmlns="http://www.w3.org/2000/svg" xmlns:xlink="http://www.w3.org/1999/xlink" width="20" height="20" viewBox="0 0 20 20" fill="none"><g opacity="1"  transform="translate(0 0)  rotate(0)"><mask id="bg-mask-0" fill="white"><use transform="translate(0 0)  rotate(0)" xlink:href="#path_0"></use></mask><g mask="url(#bg-mask-0)" ><g opacity="1"  transform="translate(3 4)  rotate(0)"><path id="路径 1" fill-rule="evenodd" style="fill:#B0B1B3" opacity="1" d="M0.5 14L13.5 14C13.78 14 14 13.78 14 13.5L14 0.5C14 0.22 13.78 0 13.5 0L0.5 0C0.22 0 0 0.22 0 0.5L0 13.5C0 13.78 0.22 14 0.5 14Z"></path><path  id="路径 1" style="fill:#B0B1B3; opacity:1;" d="M0.5,13.335h13c-0.04367,0 -0.08207,0.0166 -0.1152,0.0498c-0.0332,0.03313 -0.0498,0.07153 -0.0498,0.1152v-13c0,0.04364 0.0166,0.08204 0.0498,0.11523c0.03313,0.03318 0.07153,0.04977 0.1152,0.04977h-13c0.04363,0 0.08204,-0.01659 0.11523,-0.04977c0.03318,-0.03318 0.04977,-0.07159 0.04977,-0.11523v13c0,-0.04367 -0.01659,-0.08207 -0.04977,-0.1152c-0.03318,-0.0332 -0.07159,-0.0498 -0.11523,-0.0498zM0.5,14.665c-0.32363,0 -0.59871,-0.11327 -0.82523,-0.3398c-0.22652,-0.22647 -0.33977,-0.50153 -0.33977,-0.8252v-13c0,-0.32363 0.11326,-0.59871 0.33977,-0.82523c0.22652,-0.22652 0.50159,-0.33977 0.82523,-0.33977h13c0.32367,0 0.59873,0.11326 0.8252,0.33977c0.22653,0.22652 0.3398,0.50159 0.3398,0.82523v13c0,0.32367 -0.11327,0.59873 -0.3398,0.8252c-0.22647,0.22653 -0.50153,0.3398 -0.8252,0.3398z"></path><path  id="路径 2" style="fill:#1D1F26; opacity:1;" d="M4,3.41891h5.99999c0.04367,0 0.08691,0.00372 0.12971,0.01117c0.04287,0.00744 0.08447,0.01846 0.1248,0.03307c0.04033,0.0146 0.07863,0.0325 0.1149,0.05369c0.03633,0.0212 0.06993,0.04529 0.1008,0.07227c0.03087,0.02698 0.05843,0.05633 0.0827,0.08806c0.02427,0.03172 0.04477,0.06521 0.0615,0.10046c0.01667,0.03525 0.02927,0.07158 0.0378,0.10901c0.00853,0.03742 0.0128,0.07521 0.0128,0.11336c0,0.03815 -0.00427,0.07594 -0.0128,0.11336c-0.00853,0.03743 -0.02113,0.07376 -0.0378,0.10901c-0.01673,0.03525 -0.03723,0.06874 -0.0615,0.10046c-0.02427,0.03173 -0.05183,0.06108 -0.0827,0.08806c-0.03087,0.02698 -0.06447,0.05107 -0.1008,0.07226c-0.03627,0.0212 -0.07457,0.0391 -0.1149,0.0537c-0.04033,0.0146 -0.08193,0.02562 -0.1248,0.03307c-0.0428,0.00745 -0.08604,0.01117 -0.12971,0.01117h-5.99999c-0.04367,0 -0.08691,-0.00372 -0.12973,-0.01117c-0.04283,-0.00745 -0.08441,-0.01847 -0.12475,-0.03307c-0.04035,-0.0146 -0.07867,-0.0325 -0.11497,-0.0537c-0.03631,-0.02119 -0.0699,-0.04528 -0.10078,-0.07226c-0.03087,-0.02698 -0.05844,-0.05633 -0.0827,-0.08806c-0.02425,-0.03172 -0.04474,-0.06521 -0.06145,-0.10046c-0.01671,-0.03525 -0.02932,-0.07158 -0.03784,-0.10901c-0.00852,-0.03742 -0.01278,-0.07521 -0.01278,-0.11336c0,-0.03815 0.00426,-0.07594 0.01278,-0.11336c0.00852,-0.03743 0.02113,-0.07376 0.03784,-0.10901c0.01671,-0.03525 0.0372,-0.06874 0.06145,-0.10046c0.02426,-0.03173 0.05183,-0.06108 0.0827,-0.08806c0.03088,-0.02698 0.06447,-0.05107 0.10078,-0.07227c0.0363,-0.02119 0.07462,-0.03909 0.11497,-0.05369c0.04034,-0.01461 0.08192,-0.02563 0.12475,-0.03307c0.04282,-0.00745 0.08606,-0.01117 0.12973,-0.01117z"></path><path  id="路径 3" style="fill:#1D1F26; opacity:1;" d="M7.66667,4v7c0,0.0328 -0.00427,0.0653 -0.01281,0.0975c-0.00854,0.0322 -0.02119,0.06347 -0.03794,0.0938c-0.01675,0.03033 -0.03729,0.05917 -0.06161,0.0865c-0.02432,0.02727 -0.05196,0.05253 -0.08291,0.0758c-0.03095,0.0232 -0.06463,0.0439 -0.10102,0.0621c-0.0364,0.01827 -0.07482,0.03367 -0.11526,0.0462c-0.04044,0.0126 -0.08213,0.0221 -0.12506,0.0285c-0.04293,0.0064 -0.08629,0.0096 -0.13006,0.0096c-0.04377,0 -0.08713,-0.0032 -0.13006,-0.0096c-0.04293,-0.0064 -0.08462,-0.0159 -0.12506,-0.0285c-0.04045,-0.01253 -0.07887,-0.02793 -0.11526,-0.0462c-0.0364,-0.0182 -0.07007,-0.0389 -0.10102,-0.0621c-0.03095,-0.02327 -0.05859,-0.04853 -0.08291,-0.0758c-0.02432,-0.02733 -0.04486,-0.05617 -0.06161,-0.0865c-0.01675,-0.03033 -0.0294,-0.0616 -0.03794,-0.0938c-0.00854,-0.0322 -0.01281,-0.0647 -0.01281,-0.0975v-7c0,-0.03283 0.00427,-0.06535 0.01281,-0.09755c0.00854,-0.0322 0.02119,-0.06346 0.03794,-0.09379c0.01675,-0.03033 0.03729,-0.05915 0.06161,-0.08645c0.02432,-0.02729 0.05196,-0.05255 0.08291,-0.07576c0.03095,-0.02322 0.06462,-0.04395 0.10102,-0.06219c0.03639,-0.01823 0.07481,-0.03363 0.11526,-0.0462c0.04044,-0.01257 0.08213,-0.02205 0.12506,-0.02845c0.04293,-0.00641 0.08629,-0.00961 0.13006,-0.00961c0.04377,0 0.08713,0.0032 0.13006,0.00961c0.04293,0.0064 0.08462,0.01588 0.12506,0.02845c0.04044,0.01257 0.07886,0.02797 0.11526,0.0462c0.03639,0.01824 0.07007,0.03897 0.10102,0.06219c0.03095,0.02321 0.05859,0.04847 0.08291,0.07576c0.02432,0.0273 0.04486,0.05612 0.06161,0.08645c0.01675,0.03033 0.0294,0.06159 0.03794,0.09379c0.00854,0.0322 0.01281,0.06472 0.01281,0.09755z"></path></g></g></g><defs><rect id="path_0" x="0" y="0" width="20" height="20" /></defs></svg>