<svg xmlns="http://www.w3.org/2000/svg" xmlns:xlink="http://www.w3.org/1999/xlink" width="20" height="20" viewBox="0 0 20 20" fill="none"><g opacity="1"  transform="translate(0 0)  rotate(0)"><mask id="bg-mask-0" fill="white"><use transform="translate(0 0)  rotate(NaN)" xlink:href="#path_0"></use></mask><g mask="url(#bg-mask-0)" ><path id="路径 1" fill-rule="evenodd" style="fill:#B0B1B3" opacity="1" d="M18.3367 9.99667C18.3367 5.39667 14.6067 1.66667 9.99669 1.66667C5.39669 1.66667 1.66669 5.39667 1.66669 9.99667C1.66669 14.6067 5.39669 18.3367 9.99669 18.3367C14.6067 18.3367 18.3367 14.6067 18.3367 9.99667Z"></path><path  id="路径 1" style="fill:#B0B1B3; opacity:1;" d="M17.67,9.99667c0,-4.23787 -3.4354,-7.66334 -7.67331,-7.66334c-4.23234,0 -7.66334,3.431 -7.66334,7.66334c0,4.23233 3.431,7.67333 7.66334,7.67333c4.23791,0 7.67331,-3.4355 7.67331,-7.67333zM19.0034,9.99667c0,4.97423 -4.0325,9.00663 -9.00671,9.00663c-4.96872,0 -8.99667,-4.0379 -8.99667,-9.00663c0,-4.96872 4.02795,-8.99667 8.99667,-8.99667c4.97421,0 9.00671,4.02242 9.00671,8.99667z"></path><path  id="路径 2" style="fill:#1D1F26; opacity:1;" d="M10.6697,5.00005v4.99995h-0.6667l0.4721,-0.47069l3.53,3.53999c0.03087,0.031 0.05843,0.0647 0.0827,0.1011c0.02427,0.03647 0.04477,0.07493 0.0615,0.1154c0.01667,0.04047 0.02923,0.08217 0.0377,0.1251c0.00847,0.04293 0.0127,0.0863 0.0127,0.1301c-0.00007,0.04373 -0.0044,0.08707 -0.013,0.13c-0.0086,0.04293 -0.02133,0.0846 -0.0382,0.125c-0.0168,0.04047 -0.03737,0.07887 -0.0617,0.1152c-0.0244,0.0364 -0.0521,0.07003 -0.0831,0.1009c-0.031,0.03093 -0.0647,0.05853 -0.1011,0.0828c-0.03647,0.02427 -0.07493,0.04473 -0.1154,0.0614c-0.04047,0.01673 -0.08217,0.02933 -0.1251,0.0378c-0.04293,0.00847 -0.0863,0.01267 -0.1301,0.0126c-0.04373,-0.00007 -0.08707,-0.0044 -0.13,-0.013c-0.04293,-0.0086 -0.0846,-0.0213 -0.125,-0.0381c-0.0404,-0.0168 -0.0788,-0.0374 -0.1152,-0.0618c-0.03633,-0.02433 -0.06997,-0.052 -0.1009,-0.083l-3.52998,-3.54c-0.12462,-0.125 -0.1946,-0.2943 -0.1946,-0.4708v-4.99995c0,-0.04378 0.00427,-0.08713 0.01281,-0.13006c0.00854,-0.04293 0.02119,-0.08462 0.03794,-0.12507c0.01675,-0.04044 0.03729,-0.07886 0.06161,-0.11526c0.02432,-0.03639 0.05195,-0.07007 0.0829,-0.10102c0.03095,-0.03095 0.06463,-0.05859 0.10103,-0.08291c0.03639,-0.02432 0.07481,-0.04485 0.11526,-0.0616c0.04044,-0.01675 0.08213,-0.0294 0.12506,-0.03794c0.04293,-0.00854 0.08629,-0.01281 0.13007,-0.01281c0.0438,0 0.08713,0.00427 0.13,0.01281c0.04293,0.00854 0.08463,0.02119 0.1251,0.03794c0.04047,0.01675 0.0789,0.03728 0.1153,0.0616c0.0364,0.02432 0.07007,0.05196 0.101,0.08291c0.03093,0.03095 0.05857,0.06463 0.0829,0.10102c0.02433,0.0364 0.04487,0.07482 0.0616,0.11526c0.01673,0.04045 0.02937,0.08214 0.0379,0.12507c0.0086,0.04293 0.0129,0.08628 0.0129,0.13006z"></path></g></g><defs><rect id="path_0" x="0" y="0" width="20" height="20" /></defs></svg>