<svg xmlns="http://www.w3.org/2000/svg" xmlns:xlink="http://www.w3.org/1999/xlink" width="20" height="20" viewBox="0 0 20 20" fill="none"><g opacity="1"  transform="translate(0 0)  rotate(0)"><mask id="bg-mask-0" fill="white"><use transform="translate(0 0)  rotate(0)" xlink:href="#path_0"></use></mask><g mask="url(#bg-mask-0)" ><g opacity="1"  transform="translate(2 3)  rotate(0)"><path  id="路径 1" style="fill:#B0B1B3; opacity:1;" d="M8.65386,15.8717c-0.00854,-0.04293 -0.02119,-0.0846 -0.03794,-0.125c-0.01675,-0.04047 -0.03729,-0.0789 -0.06161,-0.1153c-0.02432,-0.0364 -0.05196,-0.07007 -0.08291,-0.101c-0.03095,-0.03093 -0.06463,-0.05857 -0.10102,-0.0829c-0.0364,-0.02433 -0.07482,-0.04487 -0.11526,-0.0616c-0.04044,-0.01673 -0.08213,-0.0294 -0.12506,-0.038c-0.04293,-0.00853 -0.08629,-0.0128 -0.13006,-0.0128c-0.04377,0 -0.08713,0.00427 -0.13006,0.0128c-0.04293,0.0086 -0.08462,0.02127 -0.12506,0.038c-0.04045,0.01673 -0.07887,0.03727 -0.11526,0.0616c-0.0364,0.02433 -0.07008,0.05197 -0.10103,0.0829c-0.03095,0.03093 -0.05859,0.0646 -0.0829,0.101c-0.02432,0.0364 -0.04486,0.07483 -0.06161,0.1153c-0.01675,0.0404 -0.0294,0.08207 -0.03794,0.125c-0.00854,0.04293 -0.01281,0.0863 -0.01281,0.1301v0c0,0.0438 0.00427,0.08717 0.01281,0.1301c0.00854,0.04293 0.02119,0.0846 0.03794,0.125c0.01675,0.04047 0.03729,0.0789 0.06161,0.1153c0.02431,0.0364 0.05195,0.07007 0.0829,0.101c0.03095,0.03093 0.06463,0.05857 0.10103,0.0829c0.03639,0.02433 0.07481,0.04487 0.11526,0.0616c0.04044,0.01673 0.08213,0.0294 0.12506,0.038c0.04293,0.00853 0.08629,0.0128 0.13006,0.0128c0.04377,0 0.08713,-0.00427 0.13006,-0.0128c0.04293,-0.0086 0.08462,-0.02127 0.12506,-0.038c0.04044,-0.01673 0.07886,-0.03727 0.11526,-0.0616c0.03639,-0.02433 0.07007,-0.05197 0.10102,-0.0829c0.03095,-0.03093 0.05859,-0.0646 0.08291,-0.101c0.02432,-0.0364 0.04486,-0.07483 0.06161,-0.1153c0.01675,-0.0404 0.0294,-0.08207 0.03794,-0.125c0.00854,-0.04293 0.01281,-0.0863 0.01281,-0.1301v0c0,-0.0438 -0.00427,-0.08717 -0.01281,-0.1301zM5.1973,1.21682c-0.90493,0.37859 -1.70023,0.91072 -2.3859,1.59639c-0.67332,0.67333 -1.19575,1.44975 -1.56728,2.32927c-0.38497,0.91133 -0.57745,1.86444 -0.57745,2.85933c0,0.99542 0.19194,1.94712 0.57581,2.85509c0.37092,0.87733 0.89473,1.65433 1.57142,2.331c0.67671,0.67673 1.45371,1.20053 2.33102,1.5714c0.90796,0.38387 1.85965,0.5758 2.85508,0.5758c0.04377,0 0.08713,0.00427 0.13006,0.0128c0.04293,0.0086 0.08462,0.02127 0.12506,0.038c0.04044,0.01673 0.07886,0.03727 0.11526,0.0616c0.03639,0.02433 0.07007,0.05197 0.10102,0.0829c0.03095,0.03093 0.05859,0.0646 0.08291,0.101c0.02432,0.0364 0.04486,0.07483 0.06161,0.1153c0.01675,0.0404 0.0294,0.08207 0.03794,0.125c0.00854,0.04293 0.01281,0.0863 0.01281,0.1301c0,0.0438 -0.00427,0.08717 -0.01281,0.1301c-0.00854,0.04293 -0.02119,0.0846 -0.03794,0.125c-0.01675,0.04047 -0.03729,0.0789 -0.06161,0.1153c-0.02432,0.0364 -0.05196,0.07007 -0.08291,0.101c-0.03095,0.03093 -0.06463,0.05857 -0.10102,0.0829c-0.0364,0.02433 -0.07482,0.04487 -0.11526,0.0616c-0.04044,0.01673 -0.08213,0.0294 -0.12506,0.038c-0.04293,0.00853 -0.08629,0.0128 -0.13006,0.0128c-1.17561,0 -2.30037,-0.22703 -3.3743,-0.6811c-1.03706,-0.43847 -1.95526,-1.05737 -2.7546,-1.8567c-0.79934,-0.79933 -1.41825,-1.71753 -1.8567,-2.7546c-0.45404,-1.07392 -0.68106,-2.19868 -0.68106,-3.37429c0,-1.17493 0.22752,-2.30099 0.68255,-3.37817c0.43908,-1.03943 1.05665,-1.95717 1.85272,-2.75324c0.80953,-0.80954 1.74757,-1.4374 2.8141,-1.88361c0.04038,-0.01689 0.08202,-0.02969 0.12493,-0.03838c0.0429,-0.00869 0.08624,-0.01312 0.13001,-0.01327c0.04377,-0.00015 0.08714,0.00396 0.1301,0.01235c0.04297,0.00839 0.0847,0.02089 0.1252,0.03749c0.0405,0.01661 0.07899,0.03701 0.11547,0.0612c0.03649,0.02419 0.07026,0.05171 0.10132,0.08255c0.03107,0.03084 0.05882,0.06442 0.08327,0.10073c0.02445,0.03631 0.04512,0.07466 0.06201,0.11504c0.01689,0.04038 0.02969,0.08203 0.03838,0.12493c0.00869,0.0429 0.01312,0.08624 0.01327,0.13001c0.00015,0.04377 -0.00396,0.08714 -0.01235,0.1301c-0.00839,0.04296 -0.02088,0.08469 -0.03749,0.1252c-0.01661,0.0405 -0.03701,0.07899 -0.0612,0.11548c-0.02419,0.03649 -0.05171,0.07026 -0.08255,0.10132c-0.03084,0.03106 -0.06442,0.05881 -0.10073,0.08326c-0.03631,0.02445 -0.07466,0.04513 -0.11504,0.06202zM8,15.3351c0.99441,0 1.94595,-0.19277 2.8546,-0.5783c0.8772,-0.37213 1.6552,-0.8976 2.334,-1.5764c0.6946,-0.6946 1.22267,-1.48477 1.5842,-2.3705c0.01653,-0.04053 0.03687,-0.07907 0.061,-0.1156c0.02413,-0.03653 0.0516,-0.07037 0.0824,-0.1015c0.03073,-0.03107 0.06427,-0.05887 0.1006,-0.0834c0.03627,-0.02447 0.07457,-0.0452 0.1149,-0.0622c0.04033,-0.01693 0.08197,-0.0298 0.1249,-0.0386c0.04287,-0.00873 0.08617,-0.01323 0.1299,-0.0135c0.0438,-0.0002 0.0872,0.00387 0.1302,0.0122c0.04293,0.00833 0.08467,0.02077 0.1252,0.0373c0.04053,0.01653 0.07907,0.03687 0.1156,0.061c0.03653,0.02413 0.07037,0.0516 0.1015,0.0824c0.03107,0.0308 0.05887,0.06433 0.0834,0.1006c0.02447,0.03627 0.0452,0.07457 0.0622,0.1149c0.01693,0.04033 0.0298,0.08197 0.0386,0.1249c0.00873,0.04287 0.01323,0.0862 0.0135,0.13c0.0002,0.04373 -0.00387,0.0871 -0.0122,0.1301c-0.00833,0.04293 -0.02077,0.08467 -0.0373,0.1252c-0.42927,1.05173 -1.05453,1.98823 -1.8758,2.8095c-0.801,0.801 -1.71967,1.42137 -2.756,1.8611c-1.07508,0.45613 -2.20021,0.6842 -3.3754,0.6842c-0.04377,0 -0.08713,-0.00427 -0.13006,-0.0128c-0.04293,-0.0086 -0.08462,-0.02127 -0.12506,-0.038c-0.04045,-0.01673 -0.07887,-0.03727 -0.11526,-0.0616c-0.0364,-0.02433 -0.07008,-0.05197 -0.10103,-0.0829c-0.03095,-0.03093 -0.05859,-0.0646 -0.0829,-0.101c-0.02432,-0.0364 -0.04486,-0.07483 -0.06161,-0.1153c-0.01675,-0.0404 -0.0294,-0.08207 -0.03794,-0.125c-0.00854,-0.04293 -0.01281,-0.0863 -0.01281,-0.1301c0,-0.0438 0.00427,-0.08717 0.01281,-0.1301c0.00854,-0.04293 0.02119,-0.0846 0.03794,-0.125c0.01675,-0.04047 0.03729,-0.0789 0.06161,-0.1153c0.02431,-0.0364 0.05195,-0.07007 0.0829,-0.101c0.03095,-0.03093 0.06463,-0.05857 0.10103,-0.0829c0.03639,-0.02433 0.07481,-0.04487 0.11526,-0.0616c0.04044,-0.01673 0.08213,-0.0294 0.12506,-0.038c0.04293,-0.00853 0.08629,-0.0128 0.13006,-0.0128z"></path><path id="路径 2" fill-rule="evenodd" style="fill:#006FFF" opacity="1" d="M16 8C16 3.58 12.42 0 8 0L8 8L16 8Z"></path><path  id="路径 2" style="fill:#006FFF; opacity:1;" d="M15.3333,8c0,-0.99543 -0.19193,-1.94712 -0.5758,-2.85508c-0.37093,-0.87731 -0.89473,-1.65432 -1.5714,-2.33102c-0.67673,-0.6767 -1.45373,-1.20051 -2.331,-1.57142c-0.90797,-0.38388 -1.85967,-0.57581 -2.8551,-0.57581v-0.66667h0.66667v8h-0.66667v-0.66667h8v0.66667zM16.6667,8c0,0.04377 -0.00427,0.08713 -0.0128,0.13006c-0.0086,0.04293 -0.02127,0.08462 -0.038,0.12506c-0.01673,0.04044 -0.03727,0.07886 -0.0616,0.11526c-0.02433,0.03639 -0.05197,0.07007 -0.0829,0.10102c-0.03093,0.03095 -0.0646,0.05859 -0.101,0.08291c-0.0364,0.02432 -0.07483,0.04486 -0.1153,0.06161c-0.0404,0.01675 -0.08207,0.0294 -0.125,0.03794c-0.04293,0.00854 -0.0863,0.01281 -0.1301,0.01281h-8c-0.04377,0 -0.08713,-0.00427 -0.13006,-0.01281c-0.04293,-0.00854 -0.08462,-0.02119 -0.12506,-0.03794c-0.04045,-0.01675 -0.07887,-0.03729 -0.11526,-0.06161c-0.0364,-0.02432 -0.07008,-0.05196 -0.10103,-0.08291c-0.03095,-0.03095 -0.05859,-0.06463 -0.0829,-0.10102c-0.02432,-0.0364 -0.04486,-0.07482 -0.06161,-0.11526c-0.01675,-0.04044 -0.0294,-0.08213 -0.03794,-0.12506c-0.00854,-0.04293 -0.01281,-0.08629 -0.01281,-0.13006v-8c0,-0.04377 0.00427,-0.08713 0.01281,-0.13006c0.00854,-0.04293 0.02119,-0.08462 0.03794,-0.12506c0.01675,-0.04044 0.03729,-0.07886 0.06161,-0.11526c0.02431,-0.0364 0.05195,-0.07007 0.0829,-0.10102c0.03095,-0.03095 0.06463,-0.05859 0.10103,-0.08291c0.03639,-0.02432 0.07481,-0.04486 0.11526,-0.06161c0.04044,-0.01675 0.08213,-0.0294 0.12506,-0.03794c0.04293,-0.00854 0.08629,-0.01281 0.13006,-0.01281c1.17561,0 2.30038,0.22702 3.3743,0.68106c1.03707,0.43846 1.95527,1.05736 2.7546,1.8567c0.79933,0.79934 1.41823,1.71754 1.8567,2.7546c0.45407,1.07393 0.6811,2.19869 0.6811,3.3743z"></path></g></g></g><defs><rect id="path_0" x="0" y="0" width="20" height="20" /></defs></svg>