<svg xmlns="http://www.w3.org/2000/svg" xmlns:xlink="http://www.w3.org/1999/xlink" width="20" height="20" viewBox="0 0 20 20" fill="none"><g opacity="1"  transform="translate(0 0)  rotate(0)"><mask id="bg-mask-0" fill="white"><use transform="translate(0 0)  rotate(0)" xlink:href="#path_0"></use></mask><g mask="url(#bg-mask-0)" ><g opacity="1"  transform="translate(2.5 3)  rotate(0)"><path id="路径 1" fill-rule="evenodd" style="fill:#B0B1B3" opacity="1" d="M15.5 7.75C15.5 3.47 12.03 0 7.75 0C3.47 0 0 3.47 0 7.75C0 12.03 3.47 15.5 7.75 15.5C12.03 15.5 15.5 12.03 15.5 7.75Z"></path><path  id="路径 1" style="fill:#B0B1B3; opacity:1;" d="M14.8333,7.75c0,-0.96097 -0.18547,-1.87992 -0.5564,-2.75685c-0.3584,-0.84736 -0.8645,-1.59794 -1.5183,-2.25175c-0.6538,-0.65381 -1.4044,-1.15992 -2.2518,-1.51834c-0.8769,-0.37093 -1.79583,-0.55639 -2.7568,-0.55639c-0.96097,0 -1.87992,0.18546 -2.75685,0.55639c-0.84735,0.35842 -1.59793,0.86453 -2.25174,1.51834c-0.65381,0.65381 -1.15993,1.4044 -1.51835,2.25175c-0.37093,0.87693 -0.55639,1.79588 -0.55639,2.75685c0,0.96097 0.18546,1.8799 0.55639,2.7568c0.35842,0.8474 0.86453,1.598 1.51834,2.2518c0.65381,0.6538 1.4044,1.1599 2.25175,1.5183c0.87693,0.37093 1.79588,0.5564 2.75685,0.5564c0.96097,0 1.8799,-0.18547 2.7568,-0.5564c0.8474,-0.3584 1.598,-0.8645 2.2518,-1.5183c0.6538,-0.6538 1.1599,-1.4044 1.5183,-2.2518c0.37093,-0.8769 0.5564,-1.79583 0.5564,-2.7568zM16.1667,7.75c0,1.14123 -0.2206,2.23333 -0.6618,3.2763c-0.42593,1.007 -1.0271,1.8987 -1.8035,2.6751c-0.7764,0.7764 -1.6681,1.37757 -2.6751,1.8035c-1.04297,0.4412 -2.13507,0.6618 -3.2763,0.6618c-1.14123,0 -2.23333,-0.2206 -3.27628,-0.6618c-1.00702,-0.42593 -1.89873,-1.0271 -2.67512,-1.8035c-0.7764,-0.7764 -1.37758,-1.6681 -1.80354,-2.6751c-0.44115,-1.04297 -0.66173,-2.13507 -0.66173,-3.2763c0,-1.14123 0.22058,-2.23333 0.66173,-3.27628c0.42596,-1.00702 1.02713,-1.89873 1.80354,-2.67512c0.77639,-0.7764 1.6681,-1.37758 2.67512,-1.80354c1.04295,-0.44115 2.13505,-0.66173 3.27628,-0.66173c1.14123,0 2.23333,0.22058 3.2763,0.66173c1.007,0.42596 1.8987,1.02713 2.6751,1.80354c0.7764,0.77639 1.37757,1.6681 1.8035,2.67512c0.4412,1.04295 0.6618,2.13505 0.6618,3.27628z"></path><path id="路径 2" fill-rule="evenodd" style="fill:#1D1F26" opacity="1" d="M6.19995 10.4353L8.51995 9.09532L10.85 7.74532L8.51995 6.40532L6.19995 5.06532L6.19995 7.74532L6.19995 10.4353Z"></path><path  id="路径 2" style="fill:#1D1F26; opacity:1;" d="M5.86652,9.85802l2.32,-1.34l2.32918,-1.34954l0.3343,0.57684l-0.3324,0.57791l-2.33001,-1.34l-2.32107,-1.34062l0.33343,-0.57729h0.66667v2.68v2.68998h-0.66667zM6.53339,11.0126c-0.10316,0.0596 -0.21431,0.0894 -0.33344,0.0894c-0.04377,0 -0.08713,-0.00427 -0.13006,-0.0128c-0.04293,-0.00853 -0.08462,-0.0212 -0.12506,-0.038c-0.04045,-0.01673 -0.07887,-0.03727 -0.11526,-0.0616c-0.03639,-0.02433 -0.07007,-0.05197 -0.10102,-0.0829c-0.03095,-0.03093 -0.05859,-0.0646 -0.08291,-0.101c-0.02432,-0.0364 -0.04486,-0.07483 -0.06161,-0.1153c-0.01675,-0.0404 -0.0294,-0.08207 -0.03794,-0.125c-0.00854,-0.04293 -0.01281,-0.0863 -0.01281,-0.1301v-2.68998v-2.68c0,-0.11913 0.02979,-0.23028 0.08938,-0.33344c0.02189,-0.03791 0.04727,-0.07331 0.07614,-0.10622c0.02887,-0.03291 0.06067,-0.06268 0.0954,-0.08932c0.03473,-0.02664 0.07173,-0.04964 0.111,-0.06899c0.03926,-0.01935 0.08003,-0.03469 0.12232,-0.04602c0.04229,-0.01132 0.08527,-0.01841 0.12895,-0.02126c0.04368,-0.00286 0.08722,-0.00143 0.13061,0.0043c0.0434,0.00572 0.08583,0.01562 0.12728,0.0297c0.04145,0.01407 0.08112,0.03206 0.11903,0.05395l2.31892,1.33938l2.32999,1.34001c0.10327,0.05939 0.18477,0.14062 0.2445,0.24369c0.02193,0.03787 0.03997,0.07752 0.0541,0.11895c0.01413,0.04143 0.0241,0.08384 0.0299,0.12723c0.00573,0.04339 0.00723,0.08693 0.0045,0.13062c-0.0028,0.04368 -0.00983,0.08667 -0.0211,0.12897c-0.01127,0.0423 -0.02657,0.0831 -0.0459,0.12239c-0.01927,0.03929 -0.0422,0.07631 -0.0688,0.11108c-0.0266,0.03477 -0.05633,0.06662 -0.0892,0.09553c-0.03287,0.02891 -0.06823,0.05433 -0.1061,0.07628l-2.33081,1.35046z"></path></g></g></g><defs><rect id="path_0" x="0" y="0" width="20" height="20" /></defs></svg>