<svg xmlns="http://www.w3.org/2000/svg" xmlns:xlink="http://www.w3.org/1999/xlink" fill="none"
  version="1.1" width="24" height="24" viewBox="0 0 24 24">
  <defs>
    <clipPath id="master_svg0_399_3167">
      <rect x="0" y="0" width="24" height="24" rx="0" />
    </clipPath>
  </defs>
  <g clip-path="url(#master_svg0_399_3167)">
    <g>
      <g>
        <path
          d="M2.2,19L21.8,19C21.9105,19,22,19.0895431,22,19.2L22,21.8C22,21.91046,21.9105,22,21.8,22L2.2,22C2.0895431,22,2,21.91046,2,21.8L2,19.2C2,19.0895431,2.0895431,19,2.2,19"
          fill-rule="evenodd" fill="" fill-opacity="1" />
      </g>
      <g>
        <path
          d="M3.2,10L5.8,10C5.9104600000000005,10,6,10.0895431,6,10.2L6,16.8C6,16.91046,5.9104600000000005,17,5.8,17L3.2,17C3.0895431,17,3,16.91046,3,16.8L3,10.2C3,10.0895431,3.0895431,10,3.2,10"
          fill-rule="evenodd" fill="" fill-opacity="1" />
      </g>
      <g>
        <path
          d="M8.2,6L10.8,6C10.91046,6,11,6.0895431,11,6.2L11,16.8C11,16.9105,10.91046,17,10.8,17L8.2,17C8.0895431,17,8,16.9105,8,16.8L8,6.2C8,6.0895431,8.0895431,6,8.2,6"
          fill-rule="evenodd" fill="" fill-opacity="1" />
      </g>
      <g>
        <path
          d="M13.2,4L15.8,4C15.91046,4,16,4.0895431,16,4.2L16,16.8C16,16.9105,15.91046,17,15.8,17L13.2,17C13.0895431,17,13,16.9105,13,16.8L13,4.2C13,4.0895431,13.0895431,4,13.2,4"
          fill-rule="evenodd" fill="" fill-opacity="1" />
      </g>
      <g>
        <path
          d="M18.2,2L20.8,2C20.91046,2,21,2.0895431,21,2.2L21,16.8C21,16.9105,20.91046,17,20.8,17L18.2,17C18.0895431,17,18,16.9105,18,16.8L18,2.2C18,2.0895431,18.0895431,2,18.2,2"
          fill-rule="evenodd" fill="" fill-opacity="1" />
      </g>
    </g>
  </g>
</svg>