<svg xmlns="http://www.w3.org/2000/svg" xmlns:xlink="http://www.w3.org/1999/xlink" width="16" height="16" viewBox="0 0 16 16" fill="none"><g opacity="1"  transform="translate(0 0)  rotate(0)"><mask id="bg-mask-0" fill="white"><use transform="translate(0 0)  rotate(0)" xlink:href="#path_0"></use></mask><g mask="url(#bg-mask-0)" ><g opacity="1"  transform="translate(2 3)  rotate(0)"><path id="圆形 2" fill-rule="evenodd" style="fill:#56575C" opacity="1" d="M6 0C2.69 0 0 2.69 0 6C0 9.31 2.69 12 6 12C9.31 12 12 9.31 12 6C12 2.69 9.31 0 6 0Z"></path><path  id="路径 10" style="fill:#1D1F26; opacity:1;" d="M9.14632,5.26441c0.0483,0.00961 0.0952,0.02383 0.14069,0.04268c0.0455,0.01885 0.08872,0.04195 0.12967,0.06931c0.04095,0.02736 0.07883,0.05845 0.11365,0.09327c0.03482,0.03482 0.06591,0.0727 0.09327,0.11365c0.02736,0.04095 0.05046,0.08417 0.06931,0.12967c0.01885,0.04549 0.03307,0.09239 0.04268,0.14069c0.00961,0.0483 0.01441,0.09707 0.01441,0.14632c0,0.04925 -0.0048,0.09802 -0.01441,0.14632c-0.00961,0.0483 -0.02383,0.0952 -0.04268,0.14069c-0.01885,0.0455 -0.04195,0.08872 -0.06931,0.12967c-0.02736,0.04095 -0.05845,0.07883 -0.09327,0.11365c-0.03482,0.03482 -0.0727,0.06591 -0.11365,0.09327c-0.04095,0.02736 -0.08417,0.05046 -0.12967,0.06931c-0.04549,0.01885 -0.09239,0.03307 -0.14069,0.04268c-0.0483,0.00961 -0.09707,0.01441 -0.14632,0.01441h-6c-0.04925,0 -0.09802,-0.0048 -0.14632,-0.01441c-0.0483,-0.00961 -0.0952,-0.02383 -0.14069,-0.04268c-0.0455,-0.01885 -0.08872,-0.04195 -0.12967,-0.06931c-0.04095,-0.02736 -0.07883,-0.05845 -0.11365,-0.09327c-0.03482,-0.03482 -0.06591,-0.0727 -0.09327,-0.11365c-0.02736,-0.04095 -0.05046,-0.08417 -0.06931,-0.12967c-0.01885,-0.04549 -0.03307,-0.09239 -0.04268,-0.14069c-0.00961,-0.0483 -0.01441,-0.09707 -0.01441,-0.14632c0,-0.04925 0.0048,-0.09802 0.01441,-0.14632c0.00961,-0.0483 0.02383,-0.0952 0.04268,-0.14069c0.01885,-0.0455 0.04195,-0.08872 0.06931,-0.12967c0.02736,-0.04095 0.05845,-0.07883 0.09327,-0.11365c0.03482,-0.03482 0.0727,-0.06591 0.11365,-0.09327c0.04095,-0.02736 0.08417,-0.05046 0.12967,-0.06931c0.04549,-0.01885 0.09239,-0.03307 0.14069,-0.04268c0.0483,-0.00961 0.09707,-0.01441 0.14632,-0.01441h6c0.04925,0 0.09802,0.0048 0.14632,0.01441z"></path><path  id="路径 11" style="fill:#1D1F26; opacity:1;" d="M6,2.25c0.04925,0 0.09802,0.0048 0.14632,0.01441c0.0483,0.00961 0.0952,0.02383 0.14069,0.04268c0.0455,0.01885 0.08872,0.04195 0.12967,0.06931c0.04095,0.02736 0.07883,0.05845 0.11365,0.09327c0.03482,0.03482 0.06591,0.0727 0.09327,0.11365c0.02736,0.04095 0.05046,0.08417 0.06931,0.12967c0.01885,0.04549 0.03307,0.09239 0.04268,0.14069c0.00961,0.0483 0.01441,0.09707 0.01441,0.14632v6c0,0.04925 -0.0048,0.09802 -0.01441,0.14632c-0.00961,0.0483 -0.02383,0.0952 -0.04268,0.14069c-0.01885,0.0455 -0.04195,0.08872 -0.06931,0.12967c-0.02736,0.04095 -0.05845,0.07883 -0.09327,0.11365c-0.03482,0.03482 -0.0727,0.06591 -0.11365,0.09327c-0.04095,0.02736 -0.08417,0.05046 -0.12967,0.06931c-0.04549,0.01885 -0.09239,0.03307 -0.14069,0.04268c-0.0483,0.00961 -0.09707,0.01441 -0.14632,0.01441c-0.04925,0 -0.09802,-0.0048 -0.14632,-0.01441c-0.0483,-0.00961 -0.0952,-0.02383 -0.14069,-0.04268c-0.0455,-0.01885 -0.08872,-0.04195 -0.12967,-0.06931c-0.04095,-0.02736 -0.07883,-0.05845 -0.11365,-0.09327c-0.03482,-0.03482 -0.06591,-0.0727 -0.09327,-0.11365c-0.02736,-0.04095 -0.05046,-0.08417 -0.06931,-0.12967c-0.01885,-0.04549 -0.03307,-0.09239 -0.04268,-0.14069c-0.00961,-0.0483 -0.01441,-0.09707 -0.01441,-0.14632v-6c0,-0.04925 0.0048,-0.09802 0.01441,-0.14632c0.00961,-0.0483 0.02383,-0.0952 0.04268,-0.14069c0.01885,-0.0455 0.04195,-0.08872 0.06931,-0.12967c0.02736,-0.04095 0.05845,-0.07883 0.09327,-0.11365c0.03482,-0.03482 0.0727,-0.06591 0.11365,-0.09327c0.04095,-0.02736 0.08417,-0.05046 0.12967,-0.06931c0.04549,-0.01885 0.09239,-0.03307 0.14069,-0.04268c0.0483,-0.00961 0.09707,-0.01441 0.14632,-0.01441z"></path></g></g></g><defs><rect id="path_0" x="0" y="0" width="16" height="16" /></defs></svg>