<svg xmlns="http://www.w3.org/2000/svg" xmlns:xlink="http://www.w3.org/1999/xlink" fill="none"
  version="1.1" width="24" height="24" viewBox="0 0 24 24">
  <defs>
    <clipPath id="master_svg0_399_3139">
      <rect x="0" y="0" width="24" height="24" rx="0" />
    </clipPath>
  </defs>
  <g clip-path="url(#master_svg0_399_3139)">
    <g>
      <g>
        <path
          d="M 6.0819 7.4546 L 3.2 7.4546 Q 3.1602 7.4546 3.1235 7.4393 Q 3.0867 7.4241 3.0586 7.396 Q 3.0304 7.3678 3.0152 7.3311 Q 3 7.2943 3 7.2546 L 3 2.2 Q 3 2.1602 3.0152 2.1235 Q 3.0304 2.0867 3.0586 2.0586 Q 3.0867 2.0304 3.1235 2.0152 Q 3.1602 2 3.2 2 L 20.8 2 Q 20.8398 2 20.8765 2.0152 Q 20.9133 2.0304 20.9414 2.0586 Q 20.9695 2.0867 20.9848 2.1235 Q 21 2.1602 21 2.2 L 21 7.2546 Q 21 7.2943 20.9848 7.3311 Q 20.9695 7.3678 20.9414 7.396 Q 20.9133 7.4241 20.8765 7.4393 Q 20.8398 7.4546 20.8 7.4546 L 6.0819 7.4546 Z Z M 6.9755 5.4545 Q 7.0553 5.3981 7.1283 5.3252 Q 7.4472 5.0062 7.4504 4.5564 Q 7.4482 4.2473 7.2969 4 L 7.0649 4 Q 7.0019 3.9177 6.9218 3.852 Q 6.8417 3.7862 6.7488 3.7403 Q 6.6559 3.6944 6.555 3.6709 Q 6.4541 3.6473 6.3504 3.6473 Q 6.2468 3.6473 6.1459 3.6709 Q 6.045 3.6944 5.9521 3.7403 Q 5.8591 3.7862 5.7791 3.852 Q 5.699 3.9177 5.636 4 L 5.404 4 Q 5.2527 4.2473 5.2505 4.5564 Q 5.2537 5.0062 5.5726 5.3252 Q 5.6456 5.3981 5.7254 5.4545 L 6.2103 5.4545 Q 6.2799 5.4655 6.3504 5.4655 Q 6.4209 5.4655 6.4906 5.4545 L 6.9755 5.4545 Z"
          fill-rule="evenodd" fill="" fill-opacity="1" />
      </g>
      <g>
        <path
          d="M 6.0819 14.7273 L 3.2 14.7273 Q 3.1602 14.7273 3.1235 14.712 Q 3.0867 14.6968 3.0586 14.6687 Q 3.0304 14.6406 3.0152 14.6038 Q 3 14.5671 3 14.5273 L 3 9.4727 Q 3 9.4329 3.0152 9.3962 Q 3.0304 9.3594 3.0586 9.3313 Q 3.0867 9.3032 3.1235 9.288 Q 3.1602 9.2727 3.2 9.2727 L 20.8 9.2727 Q 20.8398 9.2727 20.8765 9.288 Q 20.9133 9.3032 20.9414 9.3313 Q 20.9695 9.3594 20.9848 9.3962 Q 21 9.4329 21 9.4727 L 21 14.5273 Q 21 14.5671 20.9848 14.6038 Q 20.9695 14.6406 20.9414 14.6687 Q 20.9133 14.6968 20.8765 14.712 Q 20.8398 14.7273 20.8 14.7273 L 6.0819 14.7273 Z Z M 6.9755 12.7273 Q 7.0553 12.6708 7.1283 12.5979 Q 7.4472 12.2789 7.4504 11.8292 Q 7.4482 11.5201 7.2969 11.2727 L 7.0649 11.2727 Q 7.0019 11.1905 6.9218 11.1247 Q 6.8417 11.0589 6.7488 11.013 Q 6.6559 10.9672 6.555 10.9436 Q 6.4541 10.9201 6.3504 10.9201 Q 6.2468 10.9201 6.1459 10.9436 Q 6.045 10.9672 5.9521 11.013 Q 5.8591 11.0589 5.7791 11.1247 Q 5.699 11.1905 5.636 11.2727 L 5.404 11.2727 Q 5.2527 11.52 5.2505 11.8292 Q 5.2537 12.2789 5.5726 12.5979 Q 5.6456 12.6708 5.7254 12.7273 L 6.2103 12.7273 Q 6.2799 12.7382 6.3504 12.7382 Q 6.4209 12.7382 6.4906 12.7273 L 6.9755 12.7273 Z"
          fill-rule="evenodd" fill="" fill-opacity="1" />
      </g>
      <g>
        <path
          d="M 6.0819 22 L 3.2 22 Q 3.1602 22 3.1235 21.9848 Q 3.0867 21.9696 3.0586 21.9414 Q 3.0304 21.9133 3.0152 21.8765 Q 3 21.8398 3 21.8 L 3 16.7455 Q 3 16.7057 3.0152 16.6689 Q 3.0304 16.6322 3.0586 16.604 Q 3.0867 16.5759 3.1235 16.5607 Q 3.1602 16.5455 3.2 16.5455 L 20.8 16.5455 Q 20.8398 16.5455 20.8765 16.5607 Q 20.9133 16.5759 20.9414 16.604 Q 20.9695 16.6322 20.9848 16.6689 Q 21 16.7057 21 16.7455 L 21 21.8 Q 21 21.8398 20.9848 21.8765 Q 20.9695 21.9133 20.9414 21.9414 Q 20.9133 21.9696 20.8765 21.9848 Q 20.8398 22 20.8 22 L 6.0819 22 Z Z M 6.9755 20 Q 7.0553 19.9436 7.1283 19.8706 Q 7.4472 19.5516 7.4504 19.1019 T 7.097 18.301 T 6.126 18.029 T 5.35 18.601 Q 5.2527 18.7928 5.2505 19.1019 Q 5.2537 19.5516 5.5726 19.8706 Q 5.6456 19.9436 5.7254 20 L 6.045 20.141 Q 6.288 20.19 6.466 20.173 Q 6.628 20.173 6.773 20.125 L 6.9755 20 Z"
          fill-rule="evenodd" fill="" fill-opacity="1" />
      </g>
    </g>
  </g>
</svg>