<svg xmlns="http://www.w3.org/2000/svg" xmlns:xlink="http://www.w3.org/1999/xlink" fill="none"
  version="1.1" width="24" height="24" viewBox="0 0 24 24">
  <defs>
    <clipPath id="master_svg0_399_3162">
      <rect x="0" y="0" width="24" height="24" rx="0" />
    </clipPath>
  </defs>
  <g clip-path="url(#master_svg0_399_3162)">
    <g>
      <g>
        <g>
          <path
            d="M3.2,3L20.8,3C20.9105,3,21,3.0895431,21,3.2L21,7.3C21,7.41046,20.9105,7.5,20.8,7.5L3.2,7.5C3.0895431,7.5,3,7.41046,3,7.3L3,3.2C3,3.0895431,3.0895431,3,3.2,3"
            fill-rule="evenodd" fill="" fill-opacity="1" />
        </g>
        <g>
          <path
            d="M3.2,9L7.3,9C7.41046,9,7.5,9.0895431,7.5,9.2L7.5,20.8C7.5,20.9105,7.41046,21,7.3,21L3.2,21C3.0895431,21,3,20.9105,3,20.8L3,9.2C3,9.0895431,3.0895431,9,3.2,9"
            fill-rule="evenodd" fill="" fill-opacity="1" />
        </g>
        <g>
          <path
            d="M9.2,9L20.8,9C20.9105,9,21,9.0895431,21,9.2L21,20.8C21,20.9105,20.9105,21,20.8,21L9.2,21C9.0895431,21,9,20.9105,9,20.8L9,9.2C9,9.0895431,9.0895431,9,9.2,9"
            fill-rule="evenodd" fill="" fill-opacity="1" />
        </g>
      </g>
    </g>
  </g>
</svg>