<svg xmlns="http://www.w3.org/2000/svg" xmlns:xlink="http://www.w3.org/1999/xlink" fill="none"
  version="1.1" width="24" height="24" viewBox="0 0 24 24">
  <defs>
    <clipPath id="master_svg0_399_3151">
      <rect x="0" y="0" width="24" height="24" rx="0" />
    </clipPath>
  </defs>
  <g clip-path="url(#master_svg0_399_3151)">
    <g>
      <!-- <path
      d="M5.51454,18.5167C6.57741,19.6657,7.91971,20.5329,9.427710000000001,21C9.775739999999999,19.8673,10.7958,19.0472,12,19.0472C13.2042,19.0472,14.2243,19.8673,14.5723,21C16.0803,20.5329,17.4226,19.6657,18.4854,18.5167C18.088900000000002,18.0278,17.85,17.3961,17.85,16.706400000000002C17.85,15.155,19.0588,13.8974,20.55,13.8974C20.6402,13.8974,20.7294,13.902,20.8173,13.911C20.9371,13.3017,21,12.67087,21,12.02476C21,11.04602,20.8556,10.10234,20.5879,9.215499999999999C20.5753,9.21569,20.5626,9.21579,20.55,9.21579C19.0588,9.21579,17.85,7.95816,17.85,6.40681C17.85,5.96145,17.9496,5.540290000000001,18.1269,5.16617C17.086100000000002,4.15933,15.8158,3.405841,14.4066,3C13.96,3.9106,13.05,4.53416,12,4.53416C10.95002,4.53416,10.03998,3.9106,9.593440000000001,3C8.18423,3.405841,6.91388,4.15933,5.87307,5.16617C6.05037,5.540290000000001,6.15,5.96145,6.15,6.40681C6.15,7.95816,4.94117,9.21579,3.45,9.21579Q3.431019,9.21579,3.412106,9.215499999999999C3.144346,10.10234,3,11.04602,3,12.02476C3,12.67087,3.0629055,13.3017,3.182696,13.911C3.270625,13.902,3.359798,13.8974,3.45,13.8974C4.94117,13.8974,6.15,15.155,6.15,16.706400000000002C6.15,17.3961,5.9110499999999995,18.0278,5.51454,18.5167ZM7.05,12.02493Q7.05,9.89182,8.49982,8.383479999999999Q9.949639999999999,6.87514,12,6.87514Q14.0504,6.87514,15.5002,8.383479999999999Q16.95,9.89182,16.95,12.02493Q16.95,14.158,15.5002,15.6664Q14.0504,17.1747,12,17.1747Q9.949639999999999,17.1747,8.49982,15.6664Q7.05,14.158,7.05,12.02493Z"
        fill-rule="evenodd" fill="#6D7984" fill-opacity="1" /> -->
      <path
        d="M 4.6382 15.4131 Q 5.15 15.9455 5.15 16.7064 Q 5.15 17.3787 4.7379 17.8868 Q 4.6815 17.9563 4.6384 18.0347 Q 4.5952 18.1131 4.5667 18.1979 Q 4.5382 18.2828 4.5252 18.3713 Q 4.5122 18.4598 4.5151 18.5492 Q 4.518 18.6387 4.5367 18.7262 Q 4.5555 18.8137 4.5894 18.8965 Q 4.6234 18.9792 4.6716 19.0547 Q 4.7197 19.1301 4.7805 19.1958 Q 6.6107 21.1743 9.1318 21.9552 Q 9.3219 22.0141 9.5199 21.9957 Q 9.718 21.9774 9.894 21.8847 Q 10.0699 21.7919 10.197 21.6389 Q 10.3241 21.4859 10.3829 21.2959 L 10.3836 21.2937 Q 10.5546 20.7372 11.0038 20.3905 Q 11.4485 20.0472 12 20.0472 Q 12.5515 20.0472 12.9962 20.3905 Q 13.4454 20.7372 13.6164 21.2937 Q 13.6453 21.3879 13.6921 21.4746 Q 13.7388 21.5612 13.8016 21.6372 Q 13.8643 21.7131 13.9407 21.7753 Q 14.017 21.8375 14.1041 21.8836 Q 14.1911 21.9297 14.2854 21.958 Q 14.3798 21.9862 14.4778 21.9955 Q 14.5759 22.0048 14.6739 21.9948 Q 14.7719 21.9848 14.866 21.9559 L 14.8682 21.9552 Q 17.3894 21.1743 19.2195 19.1958 Q 19.2803 19.1301 19.3284 19.0547 Q 19.3766 18.9792 19.4105 18.8964 Q 19.4445 18.8137 19.4633 18.7262 Q 19.482 18.6387 19.4849 18.5492 Q 19.4878 18.4598 19.4748 18.3713 Q 19.4618 18.2828 19.4333 18.1979 Q 19.4047 18.1131 19.3616 18.0347 Q 19.3185 17.9563 19.2621 17.8868 Q 18.85 17.3787 18.85 16.7064 Q 18.85 15.9455 19.3618 15.4131 Q 19.8575 14.8974 20.55 14.8974 Q 20.6335 14.8974 20.7156 14.9058 Q 20.8078 14.9152 20.9002 14.9075 Q 20.9925 14.8999 21.0819 14.8754 Q 21.1712 14.8508 21.2546 14.8103 Q 21.3379 14.7698 21.4124 14.7146 Q 21.4869 14.6595 21.55 14.5916 Q 21.613 14.5237 21.6625 14.4454 Q 21.7121 14.367 21.7464 14.2809 Q 21.7806 14.1948 21.7985 14.1039 Q 22 13.0791 22 12.0248 Q 22 10.4328 21.5452 8.9265 Q 21.5219 8.8494 21.4867 8.7771 Q 21.4514 8.7048 21.405 8.639 Q 21.3586 8.5732 21.3023 8.5157 Q 21.2459 8.4582 21.1811 8.4105 Q 21.1163 8.3627 21.0447 8.326 Q 20.9732 8.2892 20.8966 8.2643 Q 20.82 8.2395 20.7405 8.2272 Q 20.6609 8.2149 20.5805 8.2155 L 20.5426 8.2158 Q 19.8575 8.2158 19.3618 7.7001 Q 18.85 7.1677 18.85 6.4068 Q 18.85 5.9755 19.0306 5.5944 Q 19.064 5.524 19.086 5.4493 Q 19.1081 5.3745 19.1183 5.2972 Q 19.1285 5.22 19.1266 5.142 Q 19.1248 5.0641 19.1108 4.9874 Q 19.0969 4.9107 19.0712 4.8371 Q 19.0456 4.7635 19.0089 4.6948 Q 18.9721 4.6261 18.9252 4.5639 Q 18.8782 4.5016 18.8222 4.4474 Q 17.0317 2.7154 14.6833 2.0391 Q 14.5993 2.0149 14.5123 2.0056 Q 14.4254 1.9964 14.3382 2.0023 Q 14.251 2.0083 14.1661 2.0293 Q 14.0812 2.0504 14.0013 2.0858 Q 13.9214 2.1212 13.8488 2.17 Q 13.7763 2.2187 13.7133 2.2794 Q 13.6503 2.34 13.5987 2.4106 Q 13.5472 2.4812 13.5087 2.5597 Q 13.0309 3.5342 12 3.5342 Q 10.9691 3.5342 10.4913 2.5597 Q 10.4528 2.4812 10.4013 2.4106 Q 10.3498 2.34 10.2867 2.2794 Q 10.2237 2.2187 10.1512 2.17 Q 10.0786 2.1212 9.9987 2.0858 Q 9.9188 2.0504 9.8339 2.0293 Q 9.749 2.0083 9.6618 2.0023 Q 9.5746 1.9964 9.4877 2.0056 Q 9.4007 2.0149 9.3167 2.0391 Q 6.9683 2.7154 5.1778 4.4474 Q 5.1218 4.5016 5.0748 4.5639 Q 5.0279 4.6261 4.9911 4.6948 Q 4.9544 4.7635 4.9287 4.8371 Q 4.9031 4.9108 4.8892 4.9874 Q 4.8752 5.0641 4.8734 5.142 Q 4.8715 5.22 4.8817 5.2972 Q 4.8919 5.3745 4.914 5.4493 Q 4.936 5.524 4.9694 5.5944 Q 5.15 5.9755 5.15 6.4068 Q 5.15 7.1677 4.6382 7.7001 Q 4.1425 8.2158 3.45 8.2158 Q 3.4385 8.2158 3.427 8.2156 Q 3.346 8.2144 3.2659 8.2262 Q 3.1859 8.2381 3.1087 8.2626 Q 3.0316 8.2872 2.9594 8.3238 Q 2.8872 8.3605 2.8219 8.4083 Q 2.7565 8.4561 2.6997 8.5137 Q 2.6429 8.5714 2.5961 8.6375 Q 2.5493 8.7035 2.5137 8.7762 Q 2.4782 8.849 2.4548 8.9265 Q 2 10.4328 2 12.0248 Q 2 13.0791 2.2015 14.1039 Q 2.2194 14.1948 2.2536 14.2809 Q 2.2879 14.367 2.3374 14.4454 Q 2.387 14.5237 2.45 14.5916 Q 2.5131 14.6595 2.5876 14.7146 Q 2.6621 14.7698 2.7454 14.8103 Q 2.8288 14.8508 2.9181 14.8754 Q 3.0075 14.8999 3.0998 14.9075 Q 3.1922 14.9152 3.2844 14.9058 Q 3.3665 14.8974 3.45 14.8974 Q 4.1425 14.8974 4.6382 15.4131 Z Z M 12 16.1747 Q 10.3755 16.1747 9.2208 14.9734 Q 8.05 13.7554 8.05 12.0249 Q 8.05 10.2945 9.2208 9.0765 Q 10.3755 7.8751 12 7.8751 Q 13.6245 7.8751 14.7792 9.0765 Q 15.95 10.2945 15.95 12.0249 Q 15.95 13.7554 14.7792 14.9734 Q 13.6245 16.1747 12 16.1747 Z"
        fill-rule="evenodd" fill="" fill-opacity="1" />
    </g>
  </g>
</svg>